<?xml version="1.0" encoding="UTF-8" standalone="no"?>
<!DOCTYPE svg PUBLIC "-//W3C//DTD SVG 1.1//EN"
 "http://www.w3.org/Graphics/SVG/1.1/DTD/svg11.dtd">
<!-- Generated by graphviz version 2.40.1 (20161225.0304)
 -->
<!-- Title: twoDegreesRelationshipsDiagram Pages: 1 -->
<svg width="456pt" height="263pt"
 viewBox="0.00 0.00 456.00 262.70" xmlns="http://www.w3.org/2000/svg" xmlns:xlink="http://www.w3.org/1999/xlink">
<g id="graph0" class="graph" transform="scale(1 1) rotate(0) translate(4 258.7)">
<title>twoDegreesRelationshipsDiagram</title>
<polygon fill="#ffffff" stroke="transparent" points="-4,4 -4,-258.7 452,-258.7 452,4 -4,4"/>
<text text-anchor="middle" x="72.4936" y="-7.3" font-family="Helvetica,sans-Serif" font-size="11.00" fill="#000000">Generated by SchemaSpy</text>
<!-- playback_checkpoint -->
<g id="node1" class="node">
<title>playback_checkpoint</title>
<g id="a_node1"><a xlink:href="../../tables/playback_checkpoint.html" xlink:title="playback_checkpoint" target="_top">
<polygon fill="#ffffff" stroke="transparent" points="249,-145.7 249,-250.7 440,-250.7 440,-145.7 249,-145.7"/>
<polygon fill="#f5f5f5" stroke="transparent" points="249.5,-227.2 249.5,-250.2 440.5,-250.2 440.5,-227.2 249.5,-227.2"/>
<polygon fill="none" stroke="#000000" points="249.5,-227.2 249.5,-250.2 440.5,-250.2 440.5,-227.2 249.5,-227.2"/>
<text text-anchor="start" x="254.5" y="-235.8" font-family="Helvetica,sans-Serif" font-weight="bold" font-size="11.00" fill="#000000">playback_checkpoint</text>
<text text-anchor="start" x="406.0219" y="-235.3" font-family="Helvetica,sans-Serif" font-size="11.00" fill="#000000">[table]</text>
<polygon fill="none" stroke="#000000" points="249.5,-205.2 249.5,-227.2 440.5,-227.2 440.5,-205.2 249.5,-205.2"/>
<image xlink:href="../../images/primaryKeys.png" width="11px" height="12px" preserveAspectRatio="xMinYMin meet" x="254.5" y="-222.2"/>
<text text-anchor="start" x="278.5" y="-212.3" font-family="Helvetica,sans-Serif" font-size="11.00" fill="#000000">slot</text>
<polygon fill="#ffffff" stroke="transparent" points="249.5,-183.2 249.5,-205.2 440.5,-205.2 440.5,-183.2 249.5,-183.2"/>
<polygon fill="none" stroke="#000000" points="249.5,-183.2 249.5,-205.2 440.5,-205.2 440.5,-183.2 249.5,-183.2"/>
<image xlink:href="../../images/foreignKeys.png" width="11px" height="12px" preserveAspectRatio="xMinYMin meet" x="254.5" y="-200.2"/>
<text text-anchor="start" x="278.5" y="-190.3" font-family="Helvetica,sans-Serif" font-size="11.00" fill="#000000">session_id</text>
<polygon fill="none" stroke="#000000" points="249.5,-164.2 249.5,-183.2 440.5,-183.2 440.5,-164.2 249.5,-164.2"/>
<text text-anchor="start" x="252.5" y="-170.3" font-family="Helvetica,sans-Serif" font-size="11.00" fill="#000000">...</text>
<polygon fill="#ffffff" stroke="transparent" points="249.5,-145.2 249.5,-164.2 440.5,-164.2 440.5,-145.2 249.5,-145.2"/>
<polygon fill="none" stroke="#000000" points="249.5,-145.2 249.5,-164.2 440.5,-164.2 440.5,-145.2 249.5,-145.2"/>
<polygon fill="#ffffff" stroke="transparent" points="250.5,-146.2 250.5,-163.2 319.5,-163.2 319.5,-146.2 250.5,-146.2"/>
<text text-anchor="start" x="252.5" y="-151.3" font-family="Helvetica,sans-Serif" font-size="11.00" fill="#000000">&lt; 1</text>
<polygon fill="#ffffff" stroke="transparent" points="319.5,-146.2 319.5,-163.2 379.5,-163.2 379.5,-146.2 319.5,-146.2"/>
<text text-anchor="start" x="346.4431" y="-151.3" font-family="Helvetica,sans-Serif" font-size="11.00" fill="#000000"> &#160;</text>
<polygon fill="#ffffff" stroke="transparent" points="379.5,-146.2 379.5,-163.2 439.5,-163.2 439.5,-146.2 379.5,-146.2"/>
<text text-anchor="start" x="431.3862" y="-151.3" font-family="Helvetica,sans-Serif" font-size="11.00" fill="#000000"> &#160;</text>
<polygon fill="#000000" stroke="#000000" points="319.5,-146.2 319.5,-163.2 319.5,-163.2 319.5,-146.2 319.5,-146.2"/>
<polygon fill="#000000" stroke="#000000" points="379.5,-146.2 379.5,-163.2 379.5,-163.2 379.5,-146.2 379.5,-146.2"/>
</a>
</g>
</g>
<!-- sessions -->
<g id="node2" class="node">
<title>sessions</title>
<g id="a_node2"><a xlink:href="../../tables/sessions.html" xlink:title="sessions" target="_top">
<polygon fill="#ffffff" stroke="transparent" points="8,-131.2 8,-221.2 200,-221.2 200,-131.2 8,-131.2"/>
<polygon fill="#f5f5f5" stroke="transparent" points="10,-196.2 10,-219.2 198,-219.2 198,-196.2 10,-196.2"/>
<polygon fill="none" stroke="#000000" points="10,-196.2 10,-219.2 198,-219.2 198,-196.2 10,-196.2"/>
<text text-anchor="start" x="15" y="-204.8" font-family="Helvetica,sans-Serif" font-weight="bold" font-size="11.00" fill="#000000">sessions</text>
<text text-anchor="start" x="163.0437" y="-204.3" font-family="Helvetica,sans-Serif" font-size="11.00" fill="#000000">[table]</text>
<polygon fill="none" stroke="#000000" points="10,-174.2 10,-196.2 108,-196.2 108,-174.2 10,-174.2"/>
<image xlink:href="../../images/primaryKeys.png" width="11px" height="12px" preserveAspectRatio="xMinYMin meet" x="15" y="-191.2"/>
<text text-anchor="start" x="30" y="-181.3" font-family="Helvetica,sans-Serif" font-size="11.00" fill="#000000">id</text>
<polygon fill="none" stroke="#000000" points="108,-174.2 108,-196.2 198,-196.2 198,-174.2 108,-174.2"/>
<text text-anchor="start" x="110.5042" y="-181.9" font-family="Helvetica,sans-Serif" font-size="11.00" fill="#000000">text[2000000000]</text>
<polygon fill="none" stroke="#000000" points="10,-152.2 10,-174.2 108,-174.2 108,-152.2 10,-152.2"/>
<text text-anchor="start" x="30" y="-159.3" font-family="Helvetica,sans-Serif" font-size="11.00" fill="#000000">created_at</text>
<polygon fill="none" stroke="#000000" points="108,-152.2 108,-174.2 198,-174.2 198,-152.2 108,-152.2"/>
<text text-anchor="start" x="110.5042" y="-159.9" font-family="Helvetica,sans-Serif" font-size="11.00" fill="#000000">text[2000000000]</text>
<polygon fill="#ffffff" stroke="transparent" points="10,-133.2 10,-152.2 198,-152.2 198,-133.2 10,-133.2"/>
<polygon fill="none" stroke="#000000" points="10,-133.2 10,-152.2 198,-152.2 198,-133.2 10,-133.2"/>
<polygon fill="#ffffff" stroke="transparent" points="11,-134.2 11,-151.2 76,-151.2 76,-134.2 11,-134.2"/>
<text text-anchor="start" x="13" y="-139.3" font-family="Helvetica,sans-Serif" font-size="11.00" fill="#000000">&lt; 0</text>
<polygon fill="#ffffff" stroke="transparent" points="76,-134.2 76,-151.2 132,-151.2 132,-134.2 76,-134.2"/>
<text text-anchor="start" x="100.9431" y="-139.3" font-family="Helvetica,sans-Serif" font-size="11.00" fill="#000000"> &#160;</text>
<polygon fill="#ffffff" stroke="transparent" points="132,-134.2 132,-151.2 197,-151.2 197,-134.2 132,-134.2"/>
<text text-anchor="start" x="179.4053" y="-139.3" font-family="Helvetica,sans-Serif" font-size="11.00" fill="#000000">2 &gt;</text>
<polygon fill="#000000" stroke="#000000" points="76,-134.2 76,-151.2 76,-151.2 76,-134.2 76,-134.2"/>
<polygon fill="#000000" stroke="#000000" points="132,-134.2 132,-151.2 132,-151.2 132,-134.2 132,-134.2"/>
<polygon fill="none" stroke="#000000" stroke-width="2" points="9,-132.2 9,-220.2 199,-220.2 199,-132.2 9,-132.2"/>
</a>
</g>
</g>
<!-- playback_checkpoint&#45;&gt;sessions -->
<g id="edge1" class="edge">
<title>playback_checkpoint:w&#45;&gt;sessions:e</title>
<path fill="none" stroke="#000000" d="M238.9478,-193.4938C223.9978,-191.3721 217.2421,-185.2 198,-185.2"/>
<polygon fill="#000000" stroke="#000000" points="248.9689,-190.1555 248.4346,-198.1376 246.8382,-198.0308 247.3725,-190.0486 248.9689,-190.1555"/>
<polyline fill="none" stroke="#000000" points="249.5,-194.2 245.5089,-193.9329 "/>
<ellipse fill="none" stroke="#000000" cx="242.3161" cy="-193.7191" rx="3.2" ry="3.2"/>
</g>
<!-- session_refs -->
<g id="node3" class="node">
<title>session_refs</title>
<g id="a_node3"><a xlink:href="../../tables/session_refs.html" xlink:title="session_refs" target="_top">
<polygon fill="#ffffff" stroke="transparent" points="280.5,-38.2 280.5,-124.2 408.5,-124.2 408.5,-38.2 280.5,-38.2"/>
<polygon fill="#f5f5f5" stroke="transparent" points="280.5,-101.2 280.5,-124.2 408.5,-124.2 408.5,-101.2 280.5,-101.2"/>
<polygon fill="none" stroke="#000000" points="280.5,-101.2 280.5,-124.2 408.5,-124.2 408.5,-101.2 280.5,-101.2"/>
<text text-anchor="start" x="285.5" y="-109.8" font-family="Helvetica,sans-Serif" font-weight="bold" font-size="11.00" fill="#000000">session_refs</text>
<text text-anchor="start" x="374.0219" y="-109.3" font-family="Helvetica,sans-Serif" font-size="11.00" fill="#000000">[table]</text>
<polygon fill="none" stroke="#000000" points="280.5,-79.2 280.5,-101.2 408.5,-101.2 408.5,-79.2 280.5,-79.2"/>
<image xlink:href="../../images/primaryKeys.png" width="11px" height="12px" preserveAspectRatio="xMinYMin meet" x="285.5" y="-96.2"/>
<text text-anchor="start" x="309.5" y="-86.3" font-family="Helvetica,sans-Serif" font-size="11.00" fill="#000000">session_id</text>
<polygon fill="none" stroke="#000000" points="280.5,-57.2 280.5,-79.2 408.5,-79.2 408.5,-57.2 280.5,-57.2"/>
<image xlink:href="../../images/primaryKeys.png" width="11px" height="12px" preserveAspectRatio="xMinYMin meet" x="285.5" y="-74.2"/>
<text text-anchor="start" x="309.5" y="-64.3" font-family="Helvetica,sans-Serif" font-size="11.00" fill="#000000">rendition_id</text>
<polygon fill="#ffffff" stroke="transparent" points="280.5,-38.2 280.5,-57.2 408.5,-57.2 408.5,-38.2 280.5,-38.2"/>
<polygon fill="none" stroke="#000000" points="280.5,-38.2 280.5,-57.2 408.5,-57.2 408.5,-38.2 280.5,-38.2"/>
<polygon fill="#ffffff" stroke="transparent" points="281.5,-39.2 281.5,-56.2 329.5,-56.2 329.5,-39.2 281.5,-39.2"/>
<text text-anchor="start" x="283.5" y="-44.3" font-family="Helvetica,sans-Serif" font-size="11.00" fill="#000000">&lt; 2</text>
<polygon fill="#ffffff" stroke="transparent" points="329.5,-39.2 329.5,-56.2 368.5,-56.2 368.5,-39.2 329.5,-39.2"/>
<text text-anchor="start" x="345.9431" y="-44.3" font-family="Helvetica,sans-Serif" font-size="11.00" fill="#000000"> &#160;</text>
<polygon fill="#ffffff" stroke="transparent" points="368.5,-39.2 368.5,-56.2 407.5,-56.2 407.5,-39.2 368.5,-39.2"/>
<text text-anchor="start" x="399.3862" y="-44.3" font-family="Helvetica,sans-Serif" font-size="11.00" fill="#000000"> &#160;</text>
<polygon fill="#000000" stroke="#000000" points="329.5,-39.2 329.5,-56.2 329.5,-56.2 329.5,-39.2 329.5,-39.2"/>
<polygon fill="#000000" stroke="#000000" points="368.5,-39.2 368.5,-56.2 368.5,-56.2 368.5,-39.2 368.5,-39.2"/>
</a>
</g>
</g>
<!-- session_refs&#45;&gt;sessions -->
<g id="edge3" class="edge">
<title>session_refs:w&#45;&gt;sessions:e</title>
<path fill="none" stroke="#000000" d="M265.9214,-92.9407C229.6596,-108.517 248.2415,-185.2 198,-185.2"/>
<polygon fill="#000000" stroke="#000000" points="272.6377,-91.6781 281.1652,-93.738 276.5689,-90.9391 280.5,-90.2 280.5,-90.2 280.5,-90.2 276.5689,-90.9391 279.8348,-86.662 272.6377,-91.6781 272.6377,-91.6781"/>
<ellipse fill="none" stroke="#000000" cx="269.4928" cy="-92.2694" rx="3.2" ry="3.2"/>
</g>
<!-- renditions -->
<g id="node4" class="node">
<title>renditions</title>
<g id="a_node4"><a xlink:href="../../tables/renditions.html" xlink:title="renditions" target="_top">
<polygon fill="#ffffff" stroke="transparent" points="47.5,-40.7 47.5,-101.7 160.5,-101.7 160.5,-40.7 47.5,-40.7"/>
<polygon fill="#f5f5f5" stroke="transparent" points="48,-78.2 48,-101.2 161,-101.2 161,-78.2 48,-78.2"/>
<polygon fill="none" stroke="#000000" points="48,-78.2 48,-101.2 161,-101.2 161,-78.2 48,-78.2"/>
<text text-anchor="start" x="53" y="-86.8" font-family="Helvetica,sans-Serif" font-weight="bold" font-size="11.00" fill="#000000">renditions</text>
<text text-anchor="start" x="126.5219" y="-86.3" font-family="Helvetica,sans-Serif" font-size="11.00" fill="#000000">[table]</text>
<polygon fill="none" stroke="#000000" points="48,-59.2 48,-78.2 161,-78.2 161,-59.2 48,-59.2"/>
<text text-anchor="start" x="51" y="-65.3" font-family="Helvetica,sans-Serif" font-size="11.00" fill="#000000">...</text>
<polygon fill="#ffffff" stroke="transparent" points="48,-40.2 48,-59.2 161,-59.2 161,-40.2 48,-40.2"/>
<polygon fill="none" stroke="#000000" points="48,-40.2 48,-59.2 161,-59.2 161,-40.2 48,-40.2"/>
<polygon fill="#ffffff" stroke="transparent" points="49,-41.2 49,-58.2 89,-58.2 89,-41.2 49,-41.2"/>
<text text-anchor="start" x="51" y="-46.3" font-family="Helvetica,sans-Serif" font-size="11.00" fill="#000000">&lt; 1</text>
<polygon fill="#ffffff" stroke="transparent" points="89,-41.2 89,-58.2 120,-58.2 120,-41.2 89,-41.2"/>
<text text-anchor="start" x="101.4431" y="-46.3" font-family="Helvetica,sans-Serif" font-size="11.00" fill="#000000"> &#160;</text>
<polygon fill="#ffffff" stroke="transparent" points="120,-41.2 120,-58.2 160,-58.2 160,-41.2 120,-41.2"/>
<text text-anchor="start" x="142.4053" y="-46.3" font-family="Helvetica,sans-Serif" font-size="11.00" fill="#000000">2 &gt;</text>
<polygon fill="#000000" stroke="#000000" points="89,-41.2 89,-58.2 89,-58.2 89,-41.2 89,-41.2"/>
<polygon fill="#000000" stroke="#000000" points="120,-41.2 120,-58.2 120,-58.2 120,-41.2 120,-41.2"/>
</a>
</g>
</g>
<!-- session_refs&#45;&gt;renditions -->
<g id="edge2" class="edge">
<title>session_refs:w&#45;&gt;renditions:e</title>
<path fill="none" stroke="#000000" d="M266.0055,-68.2C224.4157,-68.2 208.9245,-68.2 161,-68.2"/>
<polygon fill="#000000" stroke="#000000" points="272.5,-68.2001 280.5,-71.8 276.5,-68.2 280.5,-68.2 280.5,-68.2 280.5,-68.2 276.5,-68.2 280.5,-64.6 272.5,-68.2001 272.5,-68.2001"/>
<ellipse fill="none" stroke="#000000" cx="269.3" cy="-68.2001" rx="3.2" ry="3.2"/>
</g>
</g>
</svg>
