<?xml version="1.0" encoding="UTF-8" standalone="no"?>
<!DOCTYPE svg PUBLIC "-//W3C//DTD SVG 1.1//EN"
 "http://www.w3.org/Graphics/SVG/1.1/DTD/svg11.dtd">
<!-- Generated by graphviz version 2.40.1 (20161225.0304)
 -->
<!-- Title: oneDegreeRelationshipsDiagram Pages: 1 -->
<svg width="297pt" height="250pt"
 viewBox="0.00 0.00 297.00 250.20" xmlns="http://www.w3.org/2000/svg" xmlns:xlink="http://www.w3.org/1999/xlink">
<g id="graph0" class="graph" transform="scale(1 1) rotate(0) translate(4 246.2)">
<title>oneDegreeRelationshipsDiagram</title>
<polygon fill="#ffffff" stroke="transparent" points="-4,4 -4,-246.2 293,-246.2 293,4 -4,4"/>
<text text-anchor="middle" x="72.4936" y="-7.3" font-family="Helvetica,sans-Serif" font-size="11.00" fill="#000000">Generated by SchemaSpy</text>
<!-- controller_requests -->
<g id="node1" class="node">
<title>controller_requests</title>
<g id="a_node1"><a xlink:href="../../tables/controller_requests.html" xlink:title="controller_requests" target="_top">
<polygon fill="#ffffff" stroke="transparent" points="8,-38.2 8,-238.2 281,-238.2 281,-38.2 8,-38.2"/>
<polygon fill="#f5f5f5" stroke="transparent" points="10.5,-213.2 10.5,-236.2 279.5,-236.2 279.5,-213.2 10.5,-213.2"/>
<polygon fill="none" stroke="#000000" points="10.5,-213.2 10.5,-236.2 279.5,-236.2 279.5,-213.2 10.5,-213.2"/>
<text text-anchor="start" x="15.5" y="-221.8" font-family="Helvetica,sans-Serif" font-weight="bold" font-size="11.00" fill="#000000">controller_requests</text>
<text text-anchor="start" x="244.5437" y="-221.3" font-family="Helvetica,sans-Serif" font-size="11.00" fill="#000000">[table]</text>
<polygon fill="none" stroke="#000000" points="10.5,-191.2 10.5,-213.2 173.5,-213.2 173.5,-191.2 10.5,-191.2"/>
<image xlink:href="../../images/primaryKeys.png" width="11px" height="12px" preserveAspectRatio="xMinYMin meet" x="15.5" y="-208.2"/>
<text text-anchor="start" x="30.5" y="-198.3" font-family="Helvetica,sans-Serif" font-size="11.00" fill="#000000">sequence</text>
<polygon fill="none" stroke="#000000" points="173.5,-191.2 173.5,-213.2 279.5,-213.2 279.5,-191.2 173.5,-191.2"/>
<text text-anchor="start" x="176.0589" y="-198.9" font-family="Helvetica,sans-Serif" font-size="11.00" fill="#000000">integer[2000000000]</text>
<polygon fill="none" stroke="#000000" points="10.5,-169.2 10.5,-191.2 173.5,-191.2 173.5,-169.2 10.5,-169.2"/>
<text text-anchor="start" x="30.5" y="-176.3" font-family="Helvetica,sans-Serif" font-size="11.00" fill="#000000">request</text>
<polygon fill="none" stroke="#000000" points="173.5,-169.2 173.5,-191.2 279.5,-191.2 279.5,-169.2 173.5,-169.2"/>
<text text-anchor="start" x="176.5" y="-176.9" font-family="Helvetica,sans-Serif" font-size="11.00" fill="#000000">text[2000000000]</text>
<polygon fill="none" stroke="#000000" points="10.5,-147.2 10.5,-169.2 173.5,-169.2 173.5,-147.2 10.5,-147.2"/>
<text text-anchor="start" x="30.5" y="-154.3" font-family="Helvetica,sans-Serif" font-size="11.00" fill="#000000">receipt</text>
<polygon fill="none" stroke="#000000" points="173.5,-147.2 173.5,-169.2 279.5,-169.2 279.5,-147.2 173.5,-147.2"/>
<text text-anchor="start" x="176.5" y="-154.9" font-family="Helvetica,sans-Serif" font-size="11.00" fill="#000000">text[2000000000]</text>
<polygon fill="none" stroke="#000000" points="10.5,-125.2 10.5,-147.2 173.5,-147.2 173.5,-125.2 10.5,-125.2"/>
<text text-anchor="start" x="30.5" y="-132.3" font-family="Helvetica,sans-Serif" font-size="11.00" fill="#000000">principal</text>
<polygon fill="none" stroke="#000000" points="173.5,-125.2 173.5,-147.2 279.5,-147.2 279.5,-125.2 173.5,-125.2"/>
<text text-anchor="start" x="176.5" y="-132.9" font-family="Helvetica,sans-Serif" font-size="11.00" fill="#000000">text[2000000000]</text>
<polygon fill="none" stroke="#000000" points="10.5,-103.2 10.5,-125.2 173.5,-125.2 173.5,-103.2 10.5,-103.2"/>
<text text-anchor="start" x="30.5" y="-110.3" font-family="Helvetica,sans-Serif" font-size="11.00" fill="#000000">phase</text>
<polygon fill="none" stroke="#000000" points="173.5,-103.2 173.5,-125.2 279.5,-125.2 279.5,-103.2 173.5,-103.2"/>
<text text-anchor="start" x="176.5" y="-110.9" font-family="Helvetica,sans-Serif" font-size="11.00" fill="#000000">text[2000000000]</text>
<polygon fill="none" stroke="#000000" points="10.5,-81.2 10.5,-103.2 173.5,-103.2 173.5,-81.2 10.5,-81.2"/>
<text text-anchor="start" x="30.5" y="-88.3" font-family="Helvetica,sans-Serif" font-size="11.00" fill="#000000">created</text>
<polygon fill="none" stroke="#000000" points="173.5,-81.2 173.5,-103.2 279.5,-103.2 279.5,-81.2 173.5,-81.2"/>
<text text-anchor="start" x="176.0589" y="-88.9" font-family="Helvetica,sans-Serif" font-size="11.00" fill="#000000">real[2000000000,10]</text>
<polygon fill="none" stroke="#000000" points="10.5,-59.2 10.5,-81.2 173.5,-81.2 173.5,-59.2 10.5,-59.2"/>
<text text-anchor="start" x="30.5" y="-66.3" font-family="Helvetica,sans-Serif" font-size="11.00" fill="#000000">mode_revision</text>
<polygon fill="none" stroke="#000000" points="173.5,-59.2 173.5,-81.2 279.5,-81.2 279.5,-59.2 173.5,-59.2"/>
<text text-anchor="start" x="176.0589" y="-66.9" font-family="Helvetica,sans-Serif" font-size="11.00" fill="#000000">integer[2000000000]</text>
<polygon fill="#ffffff" stroke="transparent" points="10.5,-40.2 10.5,-59.2 279.5,-59.2 279.5,-40.2 10.5,-40.2"/>
<polygon fill="none" stroke="#000000" points="10.5,-40.2 10.5,-59.2 279.5,-59.2 279.5,-40.2 10.5,-40.2"/>
<polygon fill="#ffffff" stroke="transparent" points="11.5,-41.2 11.5,-58.2 103.5,-58.2 103.5,-41.2 11.5,-41.2"/>
<text text-anchor="start" x="13.5" y="-46.3" font-family="Helvetica,sans-Serif" font-size="11.00" fill="#000000">&lt; 0</text>
<polygon fill="#ffffff" stroke="transparent" points="103.5,-41.2 103.5,-58.2 186.5,-58.2 186.5,-41.2 103.5,-41.2"/>
<text text-anchor="start" x="141.9431" y="-46.3" font-family="Helvetica,sans-Serif" font-size="11.00" fill="#000000"> &#160;</text>
<polygon fill="#ffffff" stroke="transparent" points="186.5,-41.2 186.5,-58.2 278.5,-58.2 278.5,-41.2 186.5,-41.2"/>
<text text-anchor="start" x="260.9053" y="-46.3" font-family="Helvetica,sans-Serif" font-size="11.00" fill="#000000">0 &gt;</text>
<polygon fill="#000000" stroke="#000000" points="103.5,-41.2 103.5,-58.2 103.5,-58.2 103.5,-41.2 103.5,-41.2"/>
<polygon fill="#000000" stroke="#000000" points="186.5,-41.2 186.5,-58.2 186.5,-58.2 186.5,-41.2 186.5,-41.2"/>
<polygon fill="none" stroke="#000000" stroke-width="2" points="9,-39.2 9,-237.2 280,-237.2 280,-39.2 9,-39.2"/>
</a>
</g>
</g>
</g>
</svg>
